<?xml version="1.0" encoding="UTF-8" standalone="no"?>
<svg width="73px" height="64px" viewBox="0 0 73 64" version="1.1" xmlns="http://www.w3.org/2000/svg" xmlns:xlink="http://www.w3.org/1999/xlink">
    <!-- Generator: Sketch 3.7.1 (28215) - http://www.bohemiancoding.com/sketch -->
    <title>process03</title>
    <desc>Created with Sketch.</desc>
    <defs>
        <path d="M1.86762556,61.3824879 C2.95361523,62.2569614 4.27478739,62.6928101 5.74813644,62.6928101 L66.7641551,62.6928101 C68.2409628,62.6928101 69.5586763,62.2569614 70.6481246,61.3824879 C71.7341143,60.5107905 72.2771091,59.4503178 72.2771091,58.2676965 L72.2771091,13.7139655 C72.2771091,12.5313441 71.7341143,11.4708715 70.6481246,10.5991741 C69.5586763,9.72747671 68.2409628,9.29162801 66.7641551,9.29162801 L61.1751127,9.29162801 L61.1751127,5.92698709 C61.1751127,4.43066576 60.4764824,3.12311966 59.1587688,2.00157269 C57.7615082,0.941100058 56.1290652,0.380326572 54.2683567,0.380326572 L51.4738355,0.380326572 C49.6096685,0.380326572 47.980684,0.941100058 46.5834234,2.00157269 C45.2622513,3.12311966 44.563621,4.43066576 44.563621,5.92698709 L44.563621,9.29162801 L27.9521292,9.29162801 L27.9521292,5.92698709 C27.9521292,4.43066576 27.2534989,3.12311966 25.9323267,2.00157269 C24.5350661,0.941100058 22.9060816,0.380326572 21.0419146,0.380326572 L18.2473934,0.380326572 C16.3832264,0.380326572 14.7542419,0.941100058 13.3569813,2.00157269 C12.0358092,3.12311966 11.3371789,4.43066576 11.3371789,5.92698709 L11.3371789,9.29162801 L5.82768345,9.29162801 C4.27478739,9.29162801 2.95361523,9.72747671 1.86762556,10.5991741 C0.781635882,11.4708715 0.235182478,12.5313441 0.235182478,13.7139655 L0.235182478,58.2676965 C0.235182478,59.4503178 0.781635882,60.5107905 1.86762556,61.3824879 L1.86762556,61.3824879 Z M5.74813644,48.2348481 L18.2473934,48.2348481 L18.2473934,58.2676965 L5.74813644,58.2676965 L5.74813644,48.2348481 Z M5.74813644,34.8373588 L18.2473934,34.8373588 L18.2473934,45.9917542 L5.74813644,45.9917542 L5.74813644,34.8373588 Z M5.74813644,22.6252669 L18.2473934,22.6252669 L18.2473934,32.5942648 L5.74813644,32.5942648 L5.74813644,22.6252669 Z M16.8501328,5.92698709 C16.8501328,5.61328707 17.0057683,5.36621361 17.2374922,5.11636403 C17.5487631,4.93036491 17.860034,4.80544012 18.2473934,4.80544012 L21.0419146,4.80544012 C21.429274,4.80544012 21.7405449,4.93036491 22.0518158,5.11636403 C22.2835398,5.36621361 22.4391752,5.61328707 22.4391752,5.92698709 L22.4391752,15.9570594 C22.4391752,16.2707594 22.2835398,16.5178329 22.0518158,16.7676825 C21.7405449,16.9564577 21.429274,17.0786064 21.0419146,17.0786064 L18.2473934,17.0786064 C17.860034,17.0786064 17.5487631,16.9564577 17.2374922,16.7676825 C17.0057683,16.5178329 16.8501328,16.2707594 16.8501328,15.9570594 L16.8501328,5.92698709 L16.8501328,5.92698709 Z M21.0419146,48.2348481 L34.8588852,48.2348481 L34.8588852,58.2676965 L21.0419146,58.2676965 L21.0419146,48.2348481 Z M21.0419146,34.8373588 L34.8588852,34.8373588 L34.8588852,45.9917542 L21.0419146,45.9917542 L21.0419146,34.8373588 Z M21.0419146,22.6252669 L34.8588852,22.6252669 L34.8588852,32.5942648 L21.0419146,32.5942648 L21.0419146,22.6252669 Z M37.6534064,48.2348481 L51.549924,48.2348481 L51.549924,58.2676965 L37.6534064,58.2676965 L37.6534064,48.2348481 Z M37.6534064,34.8373588 L51.549924,34.8373588 L51.549924,45.9917542 L37.6534064,45.9917542 L37.6534064,34.8373588 Z M37.6534064,22.6252669 L51.549924,22.6252669 L51.549924,32.5942648 L37.6534064,32.5942648 L37.6534064,22.6252669 Z M50.0765749,5.92698709 C50.0765749,5.61328707 50.2287518,5.36621361 50.4639343,5.11636403 C50.7752052,4.93036491 51.0830176,4.80544012 51.4738355,4.80544012 L54.2683567,4.80544012 C54.6557161,4.80544012 54.966987,4.93036491 55.2747994,5.11636403 C55.5099819,5.36621361 55.6656173,5.61328707 55.6656173,5.92698709 L55.6656173,15.9570594 C55.6656173,16.2707594 55.5099819,16.5178329 55.2747994,16.7676825 C54.966987,16.9564577 54.6557161,17.0786064 54.2683567,17.0786064 L51.4738355,17.0786064 C51.0830176,17.0786064 50.7752052,16.9564577 50.4639343,16.7676825 C50.2287518,16.5178329 50.0765749,16.2707594 50.0765749,15.9570594 L50.0765749,5.92698709 L50.0765749,5.92698709 Z M54.3444452,48.2348481 L66.7641551,48.2348481 L66.7641551,58.2676965 L54.3444452,58.2676965 L54.3444452,48.2348481 Z M54.3444452,34.8373588 L66.7641551,34.8373588 L66.7641551,45.9917542 L54.3444452,45.9917542 L54.3444452,34.8373588 Z M54.3444452,22.6252669 L66.7641551,22.6252669 L66.7641551,32.5942648 L54.3444452,32.5942648 L54.3444452,22.6252669 Z" id="path-1"></path>
        <filter x="-50%" y="-50%" width="200%" height="200%" filterUnits="objectBoundingBox" id="filter-2">
            <feGaussianBlur stdDeviation="1" in="SourceAlpha" result="shadowBlurInner1"></feGaussianBlur>
            <feOffset dx="0" dy="1" in="shadowBlurInner1" result="shadowOffsetInner1"></feOffset>
            <feComposite in="shadowOffsetInner1" in2="SourceAlpha" operator="arithmetic" k2="-1" k3="1" result="shadowInnerInner1"></feComposite>
            <feColorMatrix values="0 0 0 0 0   0 0 0 0 0   0 0 0 0 0  0 0 0 0.05 0" type="matrix" in="shadowInnerInner1"></feColorMatrix>
        </filter>
    </defs>
    <g id="home" stroke="none" stroke-width="1" fill="none" fill-rule="evenodd">
        <g id="Desktop-HD-Copy" transform="translate(-663.000000, -782.000000)">
            <g id="Group-2" transform="translate(629.000000, 782.000000)">
                <g id="process03" transform="translate(34.000000, 0.394392)">
                    <g id="Fill-138">
                        <use fill="#D6DCE3" fill-rule="evenodd" xlink:href="#path-1"></use>
                        <use fill="black" fill-opacity="1" filter="url(#filter-2)" xlink:href="#path-1"></use>
                    </g>
                </g>
            </g>
        </g>
    </g>
</svg>