<?xml version="1.0" encoding="UTF-8" standalone="no"?>
<svg width="73px" height="58px" viewBox="0 0 73 58" version="1.1" xmlns="http://www.w3.org/2000/svg" xmlns:xlink="http://www.w3.org/1999/xlink">
    <!-- Generator: Sketch 3.7.1 (28215) - http://www.bohemiancoding.com/sketch -->
    <title>process04</title>
    <desc>Created with Sketch.</desc>
    <defs>
        <path d="M2.3378841,56.2961405 C3.55027637,57.4394625 4.96373371,58.0440465 6.58125706,58.0440465 L66.7327194,58.0440465 C68.3502428,58.0440465 69.7637001,57.4394625 70.9760924,56.2961405 C72.1224633,55.0869727 72.7286595,53.6772745 72.7286595,52.0640531 L72.7286595,6.51673619 C72.7286595,4.90351475 72.1224633,3.49381662 70.9760924,2.28464879 C69.7637001,1.14132673 68.3502428,0.536742815 66.7327194,0.536742815 L6.58125706,0.536742815 C4.96373371,0.536742815 3.55027637,1.14132673 2.3378841,2.28464879 C1.19151318,3.49381662 0.585317042,4.90351475 0.585317042,6.51673619 L0.585317042,52.0640531 C0.585317042,53.6772745 1.19151318,55.0869727 2.3378841,56.2961405 L2.3378841,56.2961405 Z M5.36886479,6.51673619 C5.36886479,6.18152134 5.50390848,5.91215227 5.70497354,5.6427832 C5.97506093,5.44225289 6.24514831,5.30756836 6.58125706,5.30756836 L66.7327194,5.30756836 C67.0688282,5.30756836 67.3389156,5.44225289 67.609003,5.6427832 C67.810068,5.91215227 67.9451117,6.18152134 67.9451117,6.51673619 L67.9451117,52.0640531 C67.9451117,52.3992679 67.810068,52.668637 67.609003,52.9380061 C67.3389156,53.1385364 67.0688282,53.2732209 66.7327194,53.2732209 L6.58125706,53.2732209 C6.24514831,53.2732209 5.97506093,53.1385364 5.70497354,52.9380061 C5.50390848,52.668637 5.36886479,52.3992679 5.36886479,52.0640531 L5.36886479,6.51673619 L5.36886479,6.51673619 Z M10.2184339,48.5023954 L19.8515507,48.5023954 L19.8515507,34.127066 L10.2184339,34.127066 L10.2184339,48.5023954 Z M24.6350985,48.5023954 L34.2682153,48.5023954 L34.2682153,14.9120722 L24.6350985,14.9120722 L24.6350985,48.5023954 Z M39.0487621,48.5023954 L48.681879,48.5023954 L48.681879,24.5195691 L39.0487621,24.5195691 L39.0487621,48.5023954 Z M53.5314481,48.5023954 L63.1645649,48.5023954 L63.1645649,10.1442397 L53.5314481,10.1442397 L53.5314481,48.5023954 Z" id="path-1"></path>
        <filter x="-50%" y="-50%" width="200%" height="200%" filterUnits="objectBoundingBox" id="filter-2">
            <feGaussianBlur stdDeviation="1" in="SourceAlpha" result="shadowBlurInner1"></feGaussianBlur>
            <feOffset dx="0" dy="1" in="shadowBlurInner1" result="shadowOffsetInner1"></feOffset>
            <feComposite in="shadowOffsetInner1" in2="SourceAlpha" operator="arithmetic" k2="-1" k3="1" result="shadowInnerInner1"></feComposite>
            <feColorMatrix values="0 0 0 0 0   0 0 0 0 0   0 0 0 0 0  0 0 0 0.05 0" type="matrix" in="shadowInnerInner1"></feColorMatrix>
        </filter>
    </defs>
    <g id="home" stroke="none" stroke-width="1" fill="none" fill-rule="evenodd">
        <g id="Desktop-HD-Copy" transform="translate(-1032.000000, -786.000000)">
            <g id="Group-3" transform="translate(998.000000, 785.000000)">
                <g id="process04" transform="translate(34.113839, 0.586914)">
                    <g id="Fill-109">
                        <use fill="#D6DCE3" fill-rule="evenodd" xlink:href="#path-1"></use>
                        <use fill="black" fill-opacity="1" filter="url(#filter-2)" xlink:href="#path-1"></use>
                    </g>
                </g>
            </g>
        </g>
    </g>
</svg>