<?xml version="1.0" encoding="UTF-8" standalone="no"?>
<svg width="30px" height="17px" viewBox="0 0 30 17" version="1.1" xmlns="http://www.w3.org/2000/svg" xmlns:xlink="http://www.w3.org/1999/xlink" xmlns:sketch="http://www.bohemiancoding.com/sketch/ns">
    <!-- Generator: Sketch 3.4.4 (17249) - http://www.bohemiancoding.com/sketch -->
    <title>#272636</title>
    <desc>Created with Sketch.</desc>
    <defs></defs>
    <g id="home" stroke="none" stroke-width="1" fill="none" fill-rule="evenodd" sketch:type="MSPage">
        <g id="#272636" sketch:type="MSArtboardGroup" fill="#000000">
            <g id="iconfont-renren-copy" sketch:type="MSLayerGroup">
                <g id="图形" sketch:type="MSShapeGroup">
                    <path d="M9.29000801,3.06645255 L9.29000801,3.45419856 C9.97454284,7.37052044 11.3912067,10.1649866 14.4284156,11.7735579 C13.9049089,10.7011871 13.5412301,9.48309258 13.5412301,8.20486012 C13.5412301,6.5562268 13.9744097,5.0051827 14.8248042,3.74435543 C15.6739683,5.0051827 16.1271639,6.55616677 16.1271639,8.20486012 C16.1271639,9.64021962 15.7581135,11.0006467 15.1056282,12.161274 C15.1457502,12.177929 14.9659365,12.1940438 15.0060884,12.2107588 C18.4684645,10.2552537 19.5587807,7.33835085 20.2433456,3.45416862 L20.2433455,0.0165499413 C18.189651,0.271926364 15.8631449,1.65849126 14.5708682,3.67476457 C13.3320375,1.74341666 11.5851848,0.384189941 9.25255683,0.0485995308 C9.22311801,0.594882991 9.29000801,2.88195736 9.29000801,3.06645255 L9.29000801,3.06645255 Z" id="Shape"></path>
                    <path d="M23.6663198,2.87184434 L23.6663198,3.35657938 C23.6663198,7.49217686 25.5655581,10.2907243 28.9731377,11.91394 C29.5206515,10.7987463 29.9993848,9.54191021 29.9993848,8.20483012 C29.9993848,4.18416704 27.089234,0.846898446 23.6663197,0.116149795 C23.6663198,0.792041994 23.6663198,1.73738487 23.6663198,2.87184434 L23.6663198,2.87184434 Z" id="Shape"></path>
                    <path d="M6.55162862,3.5511276 L6.55162862,0.102105543 C2.44414956,0.798824018 0.0160030205,4.15346783 0.0160030205,8.20486009 C0.0160030205,9.7344778 0.403749032,11.1611347 1.10905009,12.388562 C4.73122393,10.4331168 6.55162862,7.48887587 6.55162862,3.5511276 L6.55162862,3.5511276 Z" id="Shape"></path>
                    <path d="M8.15074713,8.01088205 C7.09785208,10.6249042 5.18853076,12.7281436 2.65070138,14.2583915 C4.08008909,15.6129068 5.9840088,16.4465862 8.08595774,16.4465862 C10.1289391,16.4465862 11.9842142,15.6569899 13.3981473,14.3680443 C10.9740519,12.913389 9.31542563,10.7720082 8.15074713,8.01088205 L8.15074713,8.01088205 Z" id="Shape"></path>
                    <path d="M21.8779046,7.81708408 C20.689279,10.5400389 18.8320532,12.7121488 16.1458595,14.3440971 C17.5631535,15.6484374 19.4296821,16.4466462 21.4861674,16.4466462 C23.6214864,16.4466462 25.5535245,15.5882094 26.9895742,14.1949525 C24.6805032,12.6613136 22.9382119,10.5407591 21.8779046,7.81708408 L21.8779046,7.81708408 Z" id="Shape"></path>
                </g>
            </g>
        </g>
    </g>
</svg>