<?xml version="1.0" encoding="UTF-8" standalone="no"?>
<svg width="24px" height="20px" viewBox="0 0 24 20" version="1.1" xmlns="http://www.w3.org/2000/svg" xmlns:xlink="http://www.w3.org/1999/xlink" xmlns:sketch="http://www.bohemiancoding.com/sketch/ns">
    <!-- Generator: Sketch 3.4.4 (17249) - http://www.bohemiancoding.com/sketch -->
    <title>#272636</title>
    <desc>Created with Sketch.</desc>
    <defs></defs>
    <g id="home" stroke="none" stroke-width="1" fill="none" fill-rule="evenodd" sketch:type="MSPage">
        <g id="#272636" sketch:type="MSArtboardGroup" fill="#000000">
            <g id="iconfont-weibo-2-copy" sketch:type="MSLayerGroup">
                <g id="图形" sketch:type="MSShapeGroup">
                    <path d="M17.769848,9.34269457 C16.8372835,9.16170811 17.2910175,8.65960021 17.2910175,8.65960021 C17.2910175,8.65960021 18.2034996,7.15508813 17.1103784,6.0612594 C15.7548814,4.70655295 12.4618565,6.23362136 12.4618565,6.23362136 C11.2038806,6.62391727 11.5378877,6.05551825 11.7156616,5.08819886 C11.7156616,3.9485175 11.3249889,2.01967089 7.9746588,3.15896952 C4.6278847,4.30441753 1.75349432,8.31768304 1.75349432,8.31768304 C-0.2449715,10.9845094 0.020243875,13.0456065 0.020243875,13.0456065 C0.519131225,17.595733 5.3539972,18.8447768 9.11436605,19.1404075 C13.0704422,19.4507867 18.4106424,17.7767194 20.0292058,14.3375941 C21.6484599,10.8927531 18.7059941,9.52939666 17.769848,9.34269457 L17.769848,9.34269457 Z M9.40756887,17.8573761 C5.47945452,18.0408632 2.30469822,16.0715224 2.30469822,13.4505742 C2.30469822,10.8268192 5.47945455,8.72265076 9.40756887,8.54166431 C13.3371414,8.36067785 16.5182934,9.9799108 16.5182934,12.5982818 C16.5182934,15.2188728 13.3371158,17.6788903 9.40756887,17.8573761 L9.40756887,17.8573761 Z" id="Shape"></path>
                    <path d="M8.62335817,10.2698514 C4.67378,10.7321796 5.1296629,14.4321826 5.1296629,14.4321826 C5.1296629,14.4321826 5.08952372,15.6037848 6.1891174,16.2005323 C8.50010095,17.4524084 10.8799018,16.6943729 12.0826959,15.1418138 C13.28549,13.5885148 12.5801506,9.81073835 8.62335817,10.2698514 L8.62335817,10.2698514 Z M7.62701607,15.4629608 C6.89013327,15.5493587 6.29518305,15.1242842 6.29518305,14.5071237 C6.29518305,13.8928211 6.82346487,13.249532 7.56106397,13.1724475 C8.40831035,13.0918418 8.9602817,13.5799669 8.9602817,14.1971018 C8.96028172,14.8114045 8.36246625,15.3794463 7.62701607,15.4629608 L7.62701607,15.4629608 Z M9.9559075,13.4792544 C9.7057603,13.6659565 9.39894752,13.6401596 9.26704335,13.4161273 C9.12943425,13.1979127 9.18103447,12.8477283 9.4333562,12.6639095 C9.72579152,12.4459501 10.0304298,12.5087455 10.1623339,12.7273173 C10.2949544,12.9509668 10.2003498,13.2867856 9.9559075,13.4792544 L9.9559075,13.4792544 Z" id="Shape"></path>
                    <path d="M19.6937916,7.74065956 C20.0120143,7.74065956 20.2829602,7.50519599 20.3281391,7.19805743 C20.3338952,7.17511837 20.3367605,7.15506262 20.3367605,7.12924022 C20.8191726,2.7916127 16.7820761,3.53816588 16.7820761,3.53816588 C16.4236887,3.53816588 16.1369327,3.82810652 16.1369327,4.18972222 C16.1369327,4.54562227 16.4236887,4.83556291 16.7820761,4.83556291 C19.682305,4.19546336 19.042227,7.0948699 19.042227,7.0948699 C19.0422014,7.45360223 19.3339204,7.74065956 19.6937916,7.74065956 L19.6937916,7.74065956 Z" id="Shape"></path>
                    <path d="M19.2235313,0.169643844 C17.8271532,-0.157218751 16.3921453,0.124480158 15.9900116,0.201539109 C15.9591845,0.20442245 15.9297644,0.233817101 15.9011119,0.239532742 C15.8874763,0.242416083 15.8788805,0.256730656 15.8788805,0.256730656 C15.4817354,0.368925407 15.1921397,0.735899495 15.1921397,1.16957294 C15.1921397,1.68637819 15.6107743,2.11142714 16.1340419,2.11142714 C16.1340419,2.11142714 16.6415506,2.0433499 16.9863025,1.90857331 C17.3282147,1.77093888 20.2183896,1.80607471 21.6548812,4.21733069 C22.4376593,5.97703037 21.9989423,7.15470535 21.9444769,7.34393355 C21.9444769,7.34393355 21.7581072,7.80126052 21.7581072,8.25136639 C21.7581072,8.77108049 22.1767162,9.09756034 22.6956604,9.09756034 C23.1300538,9.09756034 23.4941974,9.03838826 23.6010049,8.30444008 L23.606761,8.30444008 C25.1486788,3.1665223 21.7208589,0.752357461 19.2235313,0.169643844 L19.2235313,0.169643844 Z" id="Shape"></path>
                </g>
            </g>
        </g>
    </g>
</svg>