<?xml version="1.0" encoding="UTF-8" standalone="no"?>
<svg width="82px" height="30px" viewBox="0 0 82 30" version="1.1" xmlns="http://www.w3.org/2000/svg" xmlns:xlink="http://www.w3.org/1999/xlink">
    <!-- Generator: Sketch 3.7.1 (28215) - http://www.bohemiancoding.com/sketch -->
    <title>ele-logo-white</title>
    <desc>Created with Sketch.</desc>
    <defs></defs>
    <g id="home" stroke="none" stroke-width="1" fill="none" fill-rule="evenodd">
        <g id="Desktop-HD-Copy" transform="translate(-242.000000, -3191.000000)" fill="#AAAAAA">
            <g id="ele-logo-white" transform="translate(242.000000, 3191.000000)">
                <path d="M15.0785747,0.871904762 L66.1956782,0.871904762 L66.8493218,0.0276190476 L15.0785747,0.0276190476 C6.91203448,0.0276190476 0.268149425,6.74142857 0.268149425,14.9933333 L1.10370115,14.9933333 C1.10370115,7.20666667 7.37293103,0.871904762 15.0785747,0.871904762" id="Fill-1"></path>
                <path d="M80.8265517,14.9933333 C80.8265517,22.7795238 74.5573218,29.1142857 66.8512069,29.1142857 L15.9626667,29.1142857 L15.310908,29.9590476 L66.8512069,29.9590476 C75.0177471,29.9590476 81.6611609,23.2452381 81.6611609,14.9933333 L80.8265517,14.9933333" id="Fill-2"></path>
                <path d="M66.8512069,2.55904762 L15.0785747,2.55904762 C8.28294253,2.55904762 2.77386207,8.12619048 2.77386207,14.9933333 C2.77386207,21.8604762 8.28294253,27.4266667 15.0785747,27.4266667 L66.8512069,27.4266667 C73.6463678,27.4266667 79.1559195,21.8604762 79.1559195,14.9933333 C79.1559195,8.12619048 73.6463678,2.55904762 66.8512069,2.55904762 L66.8512069,2.55904762 Z M25.3050115,7.09238095 L27.6848966,7.09238095 L27.6848966,7.76333333 L30.7349195,7.76333333 L30.7358621,11.22 L28.7032989,11.22 L28.7032989,9.48904762 L27.6848966,9.48904762 L27.6848966,11.22 L25.3050115,11.22 L25.3050115,7.09238095 L25.3050115,7.09238095 Z M15.1388966,23.2414286 C10.6303103,23.2414286 6.97565517,19.5485714 6.97565517,14.992381 C6.97565517,10.437619 10.6303103,6.7452381 15.1388966,6.7452381 C19.6474828,6.7452381 23.3011954,10.437619 23.3011954,14.992381 C23.3011954,19.5485714 19.6474828,23.2414286 15.1388966,23.2414286 L15.1388966,23.2414286 Z M30.0661954,22.9033333 L25.3050115,22.9033333 L25.3050115,12.5947619 L28.0472989,12.5947619 L28.0472989,21.2057143 L30.0661954,21.2057143 L30.0661954,22.9033333 L30.0661954,22.9033333 Z M41.6823908,11.9290476 L38.925023,11.9290476 L38.925023,17.3933333 L39.5909195,17.3933333 L39.5909195,13.2557143 L41.6569425,13.2557143 L41.6569425,19.5438095 L38.925023,19.5438095 L38.925023,21.2080952 L41.6569425,21.2080952 L41.6569425,22.9033333 L36.1964023,22.9033333 L36.1964023,19.5438095 L35.4984598,19.5438095 L35.4984598,17.3933333 L36.1964023,17.3933333 L36.1964023,11.9290476 L34.8297356,11.9290476 L34.8297356,14.6704762 L35.5140115,14.6704762 L35.5140115,16.3742857 L34.8297356,16.3742857 L34.8297356,22.9033333 L31.4135402,22.9033333 L31.4135402,21.2080952 L32.1166667,21.2080952 L32.1166667,16.3742857 L30.0694943,16.3742857 L30.0694943,14.6704762 L32.1166667,14.6704762 L32.1166667,11.9290476 L31.0926092,11.9290476 L31.0926092,10.1652381 L32.1166667,10.1652381 L32.1166667,8.85857143 L31.0926092,8.85857143 L31.0926092,7.09619048 L35.5140115,7.09619048 L35.5140115,8.85857143 L34.8297356,8.85857143 L34.8297356,10.1652381 L36.1964023,10.1652381 L36.1964023,7.09619048 L38.925023,7.09619048 L38.925023,10.1652381 L41.6823908,10.1652381 L41.6823908,11.9290476 L41.6823908,11.9290476 Z M50.4907931,22.9033333 L43.3402989,22.9033333 L43.3402989,21.1733333 L47.7291839,21.1733333 L47.7291839,11.9019048 L49.7947356,11.9028571 L52.1694368,8.84047619 L39.5909195,8.84047619 L39.5909195,7.09 L55.5578276,7.09 L55.5535862,8.84047619 L50.4907931,15.3866667 L50.4907931,22.9033333 L50.4907931,22.9033333 Z M58.9202989,7.08380952 L62.3044483,7.08380952 L57.5197011,13.2838095 L54.1152874,13.2838095 L58.9202989,7.08380952 L58.9202989,7.08380952 Z M70.8037011,22.9033333 L54.4644943,22.9033333 L54.4644943,21.1733333 L55.7845057,21.1733333 L66.6862644,7.08380952 L70.0699425,7.08380952 L59.1889195,21.1733333 L68.0708391,21.1733333 L68.0708391,17.4233333 L70.8037011,17.4233333 L70.8037011,22.9033333 L70.8037011,22.9033333 Z" id="Fill-3"></path>
                <path d="M18.4042874,18.687619 C18.1446207,18.2333333 17.5720345,18.0790476 17.1243333,18.3404762 C17.1172644,18.3442857 17.1092529,18.35 17.1050115,18.3552381 C15.2788621,19.3985714 12.9602414,18.7628571 11.9102644,16.9257143 C10.8551034,15.0780952 11.4804713,12.7147619 13.3094483,11.6480952 C14.8589655,10.7457143 16.7699425,11.0619048 17.9603563,12.3014286 L14.3537701,14.4157143 L14.3547126,14.4157143 C13.9055977,14.6785714 13.7524368,15.2566667 14.013046,15.7095238 C14.2703563,16.1628571 14.8424713,16.3185714 15.2920575,16.057619 L20.5556092,12.9795238 C20.4462759,12.6857143 20.3138506,12.3957143 20.1555057,12.1147619 C18.581954,9.36380952 15.0955402,8.41952381 12.3725747,10.01 C9.64725287,11.5985714 8.7132069,15.1180952 10.2877011,17.8714286 C11.8584253,20.6204762 15.3330575,21.5647619 18.0550805,19.9871429 C18.057908,19.9852381 18.0593218,19.9838095 18.0626207,19.9819048 L18.0645057,19.9809524 C18.0654483,19.98 18.0678046,19.9790476 18.0687471,19.9785714 C18.3439655,19.8180952 18.6012759,19.6385714 18.8373793,19.4404762 L18.4061724,18.687619 L18.4042874,18.687619" id="Fill-4"></path>
                <path d="M20.6295977,15.7780952 L20.1578621,14.9571429 L18.5334138,15.9047619 L19.4726437,17.5452381 L20.2851034,17.0733333 C20.7328046,16.8114286 20.8859655,16.2314286 20.6295977,15.7780952" id="Fill-5"></path>
            </g>
        </g>
    </g>
</svg>