<?xml version="1.0" encoding="UTF-8" standalone="no"?>
<svg width="94px" height="57px" viewBox="0 0 94 57" version="1.1" xmlns="http://www.w3.org/2000/svg" xmlns:xlink="http://www.w3.org/1999/xlink">
    <!-- Generator: Sketch 3.7.1 (28215) - http://www.bohemiancoding.com/sketch -->
    <title>process01</title>
    <desc>Created with Sketch.</desc>
    <defs>
        <path d="M2.10159436,54.4599825 C3.32684549,55.6794228 4.80881591,56.289143 6.46971189,56.289143 L87.5774473,56.289143 C89.2344536,56.289143 90.7203137,55.6794228 91.9416751,54.4599825 C93.1630366,53.2366587 93.7737173,51.7570193 93.7737173,50.0987359 L93.7737173,6.51733787 C93.7737173,4.85905441 93.1630366,3.37553151 91.9416751,2.15609121 C90.7203137,0.936650919 89.2344536,0.326930772 87.5774473,0.326930772 L6.46971189,0.326930772 C4.80881591,0.326930772 3.32684549,0.936650919 2.10159436,2.15609121 C0.88023291,3.37553151 0.269552187,4.85905441 0.269552187,6.51733787 L0.269552187,50.0987359 C0.269552187,51.7570193 0.88023291,53.2366587 2.10159436,54.4599825 L2.10159436,54.4599825 Z M6.46971189,6.51733787 L87.5774473,6.51733787 L87.5774473,50.1026194 L6.46971189,50.1026194 L6.46971189,6.51733787 Z M13.5411613,43.8228903 L18.1659981,43.8228903 C18.6911057,43.8228903 18.9517147,43.5626912 18.9517147,43.0384096 L18.9517147,38.4208475 C18.9517147,37.8965658 18.6911057,37.6363668 18.1659981,37.6363668 L13.5411613,37.6363668 C13.0160537,37.6363668 12.7554447,37.8965658 12.7554447,38.4208475 L12.7554447,43.0384096 C12.7554447,43.5626912 13.0160537,43.8228903 13.5411613,43.8228903 L13.5411613,43.8228903 Z M13.5411613,31.3605212 L24.4517309,31.3605212 C24.9768385,31.3605212 25.2374475,31.0964386 25.2374475,30.5760405 L25.2374475,25.9545948 C25.2374475,25.4303131 24.9768385,25.1701141 24.4517309,25.1701141 L13.5411613,25.1701141 C13.0160537,25.1701141 12.7554447,25.4303131 12.7554447,25.9545948 L12.7554447,30.5760405 C12.7554447,31.0964386 13.0160537,31.3605212 13.5411613,31.3605212 L13.5411613,31.3605212 Z M13.5411613,18.8942685 L18.1659981,18.8942685 C18.6911057,18.8942685 18.9517147,18.6301859 18.9517147,18.1097878 L18.9517147,13.4883421 C18.9517147,12.9640604 18.6911057,12.7038614 18.1659981,12.7038614 L13.5411613,12.7038614 C13.0160537,12.7038614 12.7554447,12.9640604 12.7554447,13.4883421 L12.7554447,18.1097878 C12.7554447,18.6301859 13.0160537,18.8942685 13.5411613,18.8942685 L13.5411613,18.8942685 Z M26.0270538,43.8228903 L68.0201054,43.8228903 C68.545213,43.8228903 68.805822,43.5626912 68.805822,43.0384096 L68.805822,38.4208475 C68.805822,37.8965658 68.545213,37.6363668 68.0201054,37.6363668 L26.0270538,37.6363668 C25.5019462,37.6363668 25.2374475,37.8965658 25.2374475,38.4208475 L25.2374475,43.0384096 C25.2374475,43.5626912 25.5019462,43.8228903 26.0270538,43.8228903 L26.0270538,43.8228903 Z M26.0270538,18.8942685 L30.6518906,18.8942685 C31.1769982,18.8942685 31.4376072,18.6301859 31.4376072,18.1097878 L31.4376072,13.4883421 C31.4376072,12.9640604 31.1769982,12.7038614 30.6518906,12.7038614 L26.0270538,12.7038614 C25.5019462,12.7038614 25.2374475,12.9640604 25.2374475,13.4883421 L25.2374475,18.1097878 C25.2374475,18.6301859 25.5019462,18.8942685 26.0270538,18.8942685 L26.0270538,18.8942685 Z M32.2233238,31.3605212 L36.8520503,31.3605212 C37.3732683,31.3605212 37.6377669,31.0964386 37.6377669,30.5760405 L37.6377669,25.9545948 C37.6377669,25.4303131 37.3732683,25.1701141 36.8520503,25.1701141 L32.2233238,25.1701141 C31.6982162,25.1701141 31.4376072,25.4303131 31.4376072,25.9545948 L31.4376072,30.5760405 C31.4376072,31.0964386 31.6982162,31.3605212 32.2233238,31.3605212 L32.2233238,31.3605212 Z M38.5090566,18.8942685 L43.1377831,18.8942685 C43.6590011,18.8942685 43.9234997,18.6301859 43.9234997,18.1097878 L43.9234997,13.4883421 C43.9234997,12.9640604 43.6590011,12.7038614 43.1377831,12.7038614 L38.5090566,12.7038614 C37.9878387,12.7038614 37.72334,12.9640604 37.72334,13.4883421 L37.72334,18.1097878 C37.72334,18.6301859 37.9878387,18.8942685 38.5090566,18.8942685 L38.5090566,18.8942685 Z M44.7092163,31.3605212 L49.3340531,31.3605212 C49.8591608,31.3605212 50.1197697,31.0964386 50.1197697,30.5760405 L50.1197697,25.9545948 C50.1197697,25.4303131 49.8591608,25.1701141 49.3340531,25.1701141 L44.7092163,25.1701141 C44.1841087,25.1701141 43.9234997,25.4303131 43.9234997,25.9545948 L43.9234997,30.5760405 C43.9234997,31.0964386 44.1841087,31.3605212 44.7092163,31.3605212 L44.7092163,31.3605212 Z M50.9054863,18.8942685 L55.5342128,18.8942685 C56.0593205,18.8942685 56.3199294,18.6301859 56.3199294,18.1097878 L56.3199294,13.4883421 C56.3199294,12.9640604 56.0593205,12.7038614 55.5342128,12.7038614 L50.9054863,12.7038614 C50.3842684,12.7038614 50.1197697,12.9640604 50.1197697,13.4883421 L50.1197697,18.1097878 C50.1197697,18.6301859 50.3842684,18.8942685 50.9054863,18.8942685 L50.9054863,18.8942685 Z M57.1951088,31.3605212 L61.8199456,31.3605212 C62.3450533,31.3605212 62.6056622,31.0964386 62.6056622,30.5760405 L62.6056622,25.9545948 C62.6056622,25.4303131 62.3450533,25.1701141 61.8199456,25.1701141 L57.1951088,25.1701141 C56.6700012,25.1701141 56.4093922,25.4303131 56.4093922,25.9545948 L56.4093922,30.5760405 C56.4093922,31.0964386 56.6700012,31.3605212 57.1951088,31.3605212 L57.1951088,31.3605212 Z M63.3913788,18.8942685 L68.0201054,18.8942685 C68.545213,18.8942685 68.805822,18.6301859 68.805822,18.1097878 L68.805822,13.4883421 C68.805822,12.9640604 68.545213,12.7038614 68.0201054,12.7038614 L63.3913788,12.7038614 C62.8701609,12.7038614 62.6056622,12.9640604 62.6056622,13.4883421 L62.6056622,18.1097878 C62.6056622,18.6301859 62.8701609,18.8942685 63.3913788,18.8942685 L63.3913788,18.8942685 Z M69.6771116,31.3605212 L80.5059979,31.3605212 C81.0272158,31.3605212 81.2917145,31.0964386 81.2917145,30.5760405 L81.2917145,13.4883421 C81.2917145,12.9640604 81.0272158,12.7038614 80.5059979,12.7038614 L75.8772714,12.7038614 C75.3521637,12.7038614 75.0915548,12.9640604 75.0915548,13.4883421 L75.0915548,25.1701141 L69.6771116,25.1701141 C69.1558937,25.1701141 68.891395,25.4303131 68.891395,25.9545948 L68.891395,30.5760405 C68.891395,31.0964386 69.1558937,31.3605212 69.6771116,31.3605212 L69.6771116,31.3605212 Z M75.8772714,43.8228903 L80.5059979,43.8228903 C81.0272158,43.8228903 81.2917145,43.5626912 81.2917145,43.0384096 L81.2917145,38.4208475 C81.2917145,37.8965658 81.0272158,37.6363668 80.5059979,37.6363668 L75.8772714,37.6363668 C75.3521637,37.6363668 75.0915548,37.8965658 75.0915548,38.4208475 L75.0915548,43.0384096 C75.0915548,43.5626912 75.3521637,43.8228903 75.8772714,43.8228903 L75.8772714,43.8228903 Z" id="path-1"></path>
        <filter x="-50%" y="-50%" width="200%" height="200%" filterUnits="objectBoundingBox" id="filter-2">
            <feGaussianBlur stdDeviation="1" in="SourceAlpha" result="shadowBlurInner1"></feGaussianBlur>
            <feOffset dx="0" dy="1" in="shadowBlurInner1" result="shadowOffsetInner1"></feOffset>
            <feComposite in="shadowOffsetInner1" in2="SourceAlpha" operator="arithmetic" k2="-1" k3="1" result="shadowInnerInner1"></feComposite>
            <feColorMatrix values="0 0 0 0 0   0 0 0 0 0   0 0 0 0 0  0 0 0 0.05 0" type="matrix" in="shadowInnerInner1"></feColorMatrix>
        </filter>
    </defs>
    <g id="home" stroke="none" stroke-width="1" fill="none" fill-rule="evenodd">
        <g id="Desktop-HD-Copy" transform="translate(-294.000000, -786.000000)">
            <g id="Group-4" transform="translate(261.000000, 786.000000)">
                <g id="process01" transform="translate(33.000000, 0.385045)">
                    <g id="Fill-130">
                        <use fill="#D6DCE3" fill-rule="evenodd" xlink:href="#path-1"></use>
                        <use fill="black" fill-opacity="1" filter="url(#filter-2)" xlink:href="#path-1"></use>
                    </g>
                </g>
            </g>
        </g>
    </g>
</svg>