<?xml version="1.0" encoding="UTF-8" standalone="no"?>
<svg width="24px" height="20px" viewBox="0 0 24 20" version="1.1" xmlns="http://www.w3.org/2000/svg" xmlns:xlink="http://www.w3.org/1999/xlink" xmlns:sketch="http://www.bohemiancoding.com/sketch/ns">
    <!-- Generator: Sketch 3.4.4 (17249) - http://www.bohemiancoding.com/sketch -->
    <title>#272636</title>
    <desc>Created with Sketch.</desc>
    <defs></defs>
    <g id="home" stroke="none" stroke-width="1" fill="none" fill-rule="evenodd" sketch:type="MSPage">
        <g id="#272636" sketch:type="MSArtboardGroup" fill="#000000">
            <g id="iconfont-wechat-copy" sketch:type="MSLayerGroup">
                <g id="图形" sketch:type="MSShapeGroup">
                    <path d="M16.6405161,5.9576129 C15.2341935,5.9576129 13.9219355,6.26225806 12.7029677,6.87154839 C11.484,7.48083871 10.5154839,8.30883871 9.79664516,9.35593548 C9.07741935,10.4034194 8.71858065,11.5356774 8.71858065,12.7542581 C8.71858065,13.4103871 8.82812903,14.0355484 9.04683871,14.6293548 L8.62490323,14.6293548 C7.59367742,14.6293548 6.59303226,14.4888387 5.62490323,14.2074194 L2.62490323,15.5669032 L3.32787097,13.0825161 C2.29664516,12.3950323 1.48335484,11.5511613 0.890322581,10.5512903 C0.296903226,9.55141935 0,8.47335484 0,7.31709677 C0,5.31774194 0.843870968,3.59825806 2.53122581,2.16096774 C4.21858065,0.724064516 6.25006452,0.00483870968 8.62490323,0.00483870968 C10.6873548,0.00483870968 12.5156129,0.567290323 14.1092903,1.69219355 C15.7029677,2.81709677 16.6873548,4.23967742 17.0624516,5.958 C16.9374194,5.9576129 16.7969032,5.9576129 16.6405161,5.9576129 L16.6405161,5.9576129 Z M4.89832258,5.69980645 C5.13251613,5.934 5.42129032,6.05129032 5.76541935,6.05129032 C6.10916129,6.05129032 6.39832258,5.934 6.63251613,5.69980645 C6.86670968,5.4656129 6.984,5.17683871 6.984,4.83270968 C6.984,4.48896774 6.86670968,4.19980645 6.63251613,3.9656129 C6.39832258,3.73141935 6.10916129,3.61412903 5.76541935,3.61412903 C5.42090323,3.61412903 5.13251613,3.73141935 4.89832258,3.9656129 C4.66412903,4.19980645 4.54683871,4.48896774 4.54683871,4.83270968 C4.54683871,5.17722581 4.66412903,5.4656129 4.89832258,5.69980645 L4.89832258,5.69980645 Z M24,12.7546452 C24,14.7857419 23.0624516,16.4262581 21.1873548,17.6765806 L21.7498065,19.785871 L19.2185806,18.614129 C18.4060645,18.8641935 17.5467097,18.9892258 16.6405161,18.9892258 C14.6403871,18.9892258 12.9216774,18.3799355 11.4843871,17.1609677 C10.0470968,15.9423871 9.32825806,14.4737419 9.32825806,12.7546452 C9.32825806,11.6297419 9.65651613,10.5911613 10.3126452,9.63735484 C10.9687742,8.68432258 11.8594839,7.93412903 12.9843871,7.38716129 C14.1092903,6.84096774 15.3282581,6.56690323 16.6405161,6.56690323 C18.6716129,6.56690323 20.4061935,7.16922581 21.8434839,8.37154839 C23.2815484,9.57464516 24,11.0355484 24,12.7546452 L24,12.7546452 Z M12.3514839,3.9656129 C12.1172903,3.73141935 11.835871,3.61412903 11.5076129,3.61412903 C11.1793548,3.61412903 10.8983226,3.73141935 10.6637419,3.9656129 C10.4291613,4.19980645 10.3122581,4.48122581 10.3122581,4.80948387 C10.3122581,5.13774194 10.4295484,5.41877419 10.6637419,5.65335484 C10.8979355,5.88793548 11.1793548,6.00483871 11.5076129,6.00483871 C11.835871,6.00483871 12.1169032,5.88754839 12.3514839,5.65335484 C12.5860645,5.41916129 12.7029677,5.13774194 12.7029677,4.80948387 C12.7029677,4.48122581 12.5860645,4.19980645 12.3514839,3.9656129 L12.3514839,3.9656129 Z M14.2029677,11.6293548 C14.4843871,11.6293548 14.7267097,11.5275484 14.9295484,11.3247097 C15.1323871,11.121871 15.2341935,10.8872903 15.2341935,10.6217419 C15.2341935,10.3565806 15.1323871,10.1223871 14.9295484,9.91877419 C14.7267097,9.71554839 14.4843871,9.61412903 14.2029677,9.61412903 C13.9215484,9.61412903 13.6796129,9.71554839 13.4763871,9.91877419 C13.2731613,10.1223871 13.1717419,10.3484516 13.1717419,10.5985161 C13.1717419,10.785871 13.2185806,10.958129 13.3122581,11.114129 C13.4059355,11.270129 13.5305806,11.3955484 13.6873548,11.4892258 C13.844129,11.5829032 14.0156129,11.6293548 14.2029677,11.6293548 L14.2029677,11.6293548 Z M18.3514839,11.3715484 C18.5543226,11.5743871 18.8047742,11.6761935 19.1016774,11.6761935 C19.3985806,11.6761935 19.6486452,11.5743871 19.851871,11.3715484 C20.0550968,11.1687097 20.1565161,10.9263871 20.1565161,10.6449677 C20.1565161,10.3635484 20.0547097,10.122 19.851871,9.9183871 C19.6490323,9.71516129 19.3985806,9.61374194 19.1016774,9.61374194 C18.8047742,9.61374194 18.5547097,9.71516129 18.3514839,9.9183871 C18.1486452,10.122 18.0468387,10.3635484 18.0468387,10.6449677 C18.0468387,10.9263871 18.1486452,11.1687097 18.3514839,11.3715484 L18.3514839,11.3715484 Z" id="Shape"></path>
                </g>
            </g>
        </g>
    </g>
</svg>